<svg width="139" height="139" viewBox="0 0 139 139" fill="none" xmlns="http://www.w3.org/2000/svg">
<g clip-path="url(#clip0_622_55)">
<rect x="17.4194" y="69.5" width="107.286" height="47.9141" fill="#00FF99" fill-opacity="0.07"/>
<g filter="url(#filter0_f_622_55)">
<rect width="107.286" height="8.33288" transform="matrix(1 0 0 -1 17.4194 97.6234)" fill="#00D980"/>
</g>
<line x1="17.4194" y1="68.2386" x2="124.705" y2="68.2386" stroke="#00D980" stroke-width="2.5228"/>
<path d="M62.5343 33.4342H30.3094V65.659H62.5343V33.4342ZM36.7544 39.8792H56.0893V59.2141H36.7544V39.8792ZM49.6443 91.4389H43.1994V97.8839H49.6443V91.4389Z" fill="#00D980"/>
<path d="M62.5343 78.549H30.3094V110.774H62.5343V78.549ZM36.7544 84.994H56.0893V104.329H36.7544V84.994ZM88.3141 46.3242H94.7591V52.7692H88.3141V46.3242Z" fill="#00D980"/>
<path d="M75.4242 33.4342H107.649V65.659H75.4242V33.4342ZM81.8692 39.8792V59.2141H101.204V39.8792H81.8692ZM68.9792 72.104V84.9939H75.4242V91.4389H68.9792V97.8839H81.8692V84.9939H88.3141V97.8839H94.7591V91.4389H107.649V84.9939H88.3141V72.104H68.9792ZM81.8692 84.9939H75.4242V78.549H81.8692V84.9939ZM107.649 97.8839H101.204V104.329H88.3141V110.774H107.649V97.8839ZM81.8692 110.774V104.329H68.9792V110.774H81.8692Z" fill="#00D980"/>
<path d="M94.7592 78.549H107.649V72.104H94.7592V78.549Z" fill="#00D980"/>
<circle cx="46.3502" cy="49.4751" r="3.72376" fill="#00D980"/>
<path d="M0.753662 5.05031C0.753662 3.91077 1.20634 2.8179 2.01212 2.01212C2.8179 1.20634 3.91077 0.753662 5.05031 0.753662L30.8302 0.753662C31.9697 0.753662 33.0626 1.20634 33.8684 2.01212C34.6741 2.8179 35.1268 3.91077 35.1268 5.05031C35.1268 6.18985 34.6741 7.28271 33.8684 8.08849C33.0626 8.89427 31.9697 9.34695 30.8302 9.34695V9.34695C18.9653 9.34695 9.34695 18.9653 9.34695 30.8302V30.8302C9.34695 31.9697 8.89427 33.0626 8.08849 33.8684C7.28271 34.6741 6.18985 35.1268 5.05031 35.1268C3.91077 35.1268 2.8179 34.6741 2.01212 33.8684C1.20634 33.0626 0.753662 31.9697 0.753662 30.8302V5.05031ZM103.873 5.05031C103.873 3.91077 104.326 2.8179 105.132 2.01212C105.937 1.20634 107.03 0.753662 108.17 0.753662L133.95 0.753662C135.089 0.753662 136.182 1.20634 136.988 2.01212C137.794 2.8179 138.246 3.91077 138.246 5.05031V30.8302C138.246 31.9697 137.794 33.0626 136.988 33.8684C136.182 34.6741 135.089 35.1268 133.95 35.1268C132.81 35.1268 131.717 34.6741 130.911 33.8684C130.106 33.0626 129.653 31.9697 129.653 30.8302V30.8302C129.653 18.9653 120.035 9.34695 108.17 9.34695V9.34695C107.03 9.34695 105.937 8.89427 105.132 8.08849C104.326 7.28271 103.873 6.18985 103.873 5.05031ZM5.05031 103.873C6.18985 103.873 7.28271 104.326 8.08849 105.132C8.89427 105.937 9.34695 107.03 9.34695 108.17V108.17C9.34695 120.035 18.9653 129.653 30.8302 129.653V129.653C31.9697 129.653 33.0626 130.106 33.8684 130.911C34.6741 131.717 35.1268 132.81 35.1268 133.95C35.1268 135.089 34.6741 136.182 33.8684 136.988C33.0626 137.794 31.9697 138.246 30.8302 138.246H5.05031C3.91077 138.246 2.8179 137.794 2.01212 136.988C1.20634 136.182 0.753662 135.089 0.753662 133.95V108.17C0.753662 107.03 1.20634 105.937 2.01212 105.132C2.8179 104.326 3.91077 103.873 5.05031 103.873ZM133.95 103.873C135.089 103.873 136.182 104.326 136.988 105.132C137.794 105.937 138.246 107.03 138.246 108.17V133.95C138.246 135.089 137.794 136.182 136.988 136.988C136.182 137.794 135.089 138.246 133.95 138.246H108.17C107.03 138.246 105.937 137.794 105.132 136.988C104.326 136.182 103.873 135.089 103.873 133.95C103.873 132.81 104.326 131.717 105.132 130.911C105.937 130.106 107.03 129.653 108.17 129.653V129.653C120.035 129.653 129.653 120.035 129.653 108.17V108.17C129.653 107.03 130.106 105.937 130.911 105.132C131.717 104.326 132.81 103.873 133.95 103.873Z" fill="#D6FFEE"/>
</g>
<defs>
<filter id="filter0_f_622_55" x="-24.3329" y="47.5382" width="190.791" height="91.8376" filterUnits="userSpaceOnUse" color-interpolation-filters="sRGB">
<feFlood flood-opacity="0" result="BackgroundImageFix"/>
<feBlend mode="normal" in="SourceGraphic" in2="BackgroundImageFix" result="shape"/>
<feGaussianBlur stdDeviation="20.8762" result="effect1_foregroundBlur_622_55"/>
</filter>
<clipPath id="clip0_622_55">
<rect width="139" height="139" fill="white"/>
</clipPath>
</defs>
</svg>
