<svg width="139" height="139" viewBox="0 0 139 139" fill="none" xmlns="http://www.w3.org/2000/svg">
<circle cx="72.5228" cy="111.888" r="15.1368" fill="#D6FFEE"/>
<circle cx="93.1147" cy="26.5992" r="15.6236" fill="#00D980" fill-opacity="0.23"/>
<path d="M71.0211 51.3868C72.4682 48.0672 75.82 46.1295 79.4413 46.1295H106.788C110.409 46.1295 113.761 48.0672 115.208 51.3868C117.372 56.3507 120.161 64.2079 120.434 72.2096C120.458 72.9058 119.891 73.4708 119.195 73.4708H67.0348C66.3381 73.4708 65.7714 72.9058 65.7951 72.2096C66.068 64.2079 68.8573 56.3507 71.0211 51.3868Z" fill="#00D980" fill-opacity="0.23"/>
<circle cx="70.0001" cy="30.8798" r="15.6236" fill="#00D980" fill-opacity="0.44"/>
<path d="M47.9066 55.6675C49.3537 52.3479 52.7055 50.4102 56.3268 50.4102H83.6734C87.2947 50.4102 90.6465 52.3479 92.0936 55.6675C94.2575 60.6313 97.0468 68.4886 97.3197 76.4902C97.3434 77.1865 96.7766 77.7514 96.08 77.7514H43.9202C43.2236 77.7514 42.6568 77.1865 42.6805 76.4902C42.9535 68.4886 45.7428 60.6313 47.9066 55.6675Z" fill="#00D980" fill-opacity="0.44"/>
<circle cx="46.8853" cy="38.5844" r="15.6236" fill="#00D980" fill-opacity="0.71"/>
<path d="M24.7918 63.372C26.2389 60.0524 29.5907 58.1147 33.212 58.1147H60.5586C64.1799 58.1147 67.5317 60.0524 68.9788 63.372C71.1426 68.3359 73.9319 76.1932 74.2049 84.1948C74.2286 84.8911 73.6618 85.456 72.9652 85.456H20.8054C20.1088 85.456 19.542 84.8911 19.5657 84.1948C19.8386 76.1932 22.6279 68.3359 24.7918 63.372Z" fill="#00D980" fill-opacity="0.71"/>
<path d="M79.1902 114.501L79.6362 114.946L80.0821 114.501L79.6362 114.055L79.1902 114.501ZM68.4683 112.879C68.4683 112.53 68.1859 112.248 67.8376 112.248C67.4893 112.248 67.2069 112.53 67.2069 112.879L68.4683 112.879ZM77.2035 117.379L79.6362 114.946L78.7442 114.055L76.3115 116.487L77.2035 117.379ZM79.6362 114.055L77.2035 111.622L76.3115 112.514L78.7442 114.946L79.6362 114.055ZM79.1902 113.87L69.4594 113.87L69.4594 115.131L79.1902 115.131L79.1902 113.87ZM69.4594 113.87C68.912 113.87 68.4683 113.426 68.4683 112.879L67.2069 112.879C67.2069 114.123 68.2154 115.131 69.4594 115.131L69.4594 113.87Z" fill="#00D980"/>
<path d="M66.2158 108.013L65.7698 108.459L65.3239 108.013L65.7698 107.567L66.2158 108.013ZM76.7575 108.013L76.7575 108.644L76.7575 108.644L76.7575 108.013ZM79.01 109.635C79.01 109.983 78.7276 110.266 78.3793 110.266C78.031 110.266 77.7486 109.983 77.7486 109.635L79.01 109.635ZM68.2025 110.892L65.7698 108.459L66.6618 107.567L69.0945 110L68.2025 110.892ZM65.7698 107.567L68.2025 105.135L69.0945 106.027L66.6618 108.459L65.7698 107.567ZM66.2158 107.383L76.7575 107.383L76.7575 108.644L66.2158 108.644L66.2158 107.383ZM76.7575 107.383C78.0015 107.383 79.01 108.391 79.01 109.635L77.7486 109.635C77.7486 109.088 77.3049 108.644 76.7575 108.644L76.7575 107.383Z" fill="#00D980"/>
</svg>
