<svg width="136" height="48" viewBox="0 0 136 48" fill="none" xmlns="http://www.w3.org/2000/svg">
<g filter="url(#filter0_d_359_251)">
<rect x="13.4551" y="10.7378" width="23.127" height="23.127" fill="#00D980"/>
<path d="M43.5981 16.0505C44.1105 15.5381 44.4738 14.8865 44.667 14.133C44.8603 13.3795 44.8799 12.5387 44.7246 11.6587C44.5693 10.7788 44.2422 9.87687 43.762 9.00448C43.2818 8.13208 42.6579 7.3063 41.9258 6.57427C41.1938 5.84225 40.368 5.21832 39.4956 4.73811C38.6232 4.2579 37.7213 3.93082 36.8414 3.77553C35.9614 3.62025 35.1207 3.6398 34.3671 3.83308C33.6136 4.02636 32.962 4.38958 32.4496 4.90199L38.0238 10.4763L43.5981 16.0505Z" fill="#00D980"/>
<path d="M17.5505 4.90188C17.0381 4.38946 16.3865 4.02625 15.633 3.83297C14.8795 3.63969 14.0387 3.62014 13.1587 3.77542C12.2788 3.93071 11.3769 4.25779 10.5045 4.738C9.63208 5.21821 8.8063 5.84214 8.07427 6.57416C7.34225 7.30619 6.71832 8.13197 6.23811 9.00437C5.7579 9.87676 5.43082 10.7787 5.27553 11.6586C5.12025 12.5386 5.1398 13.3793 5.33308 14.1329C5.52636 14.8864 5.88958 15.538 6.40199 16.0504L11.9763 10.4762L17.5505 4.90188Z" fill="#00D980"/>
<path d="M32.4495 39.7002C32.9619 40.2126 33.6135 40.5758 34.367 40.7691C35.1205 40.9624 35.9613 40.9819 36.8412 40.8266C37.7212 40.6713 38.6231 40.3443 39.4955 39.8641C40.3679 39.3838 41.1937 38.7599 41.9257 38.0279C42.6577 37.2959 43.2817 36.4701 43.7619 35.5977C44.2421 34.7253 44.5692 33.8234 44.7245 32.9434C44.8798 32.0635 44.8602 31.2227 44.6669 30.4692C44.4736 29.7156 44.1104 29.064 43.598 28.5516L38.0237 34.1259L32.4495 39.7002Z" fill="#00D980"/>
<path d="M6.40188 28.5515C5.88946 29.0639 5.52625 29.7155 5.33297 30.4691C5.13969 31.2226 5.12014 32.0633 5.27542 32.9433C5.43071 33.8233 5.75779 34.7252 6.238 35.5976C6.71821 36.47 7.34214 37.2958 8.07416 38.0278C8.80619 38.7598 9.63197 39.3837 10.5044 39.8639C11.3768 40.3441 12.2787 40.6712 13.1586 40.8265C14.0386 40.9818 14.8793 40.9622 15.6329 40.769C16.3864 40.5757 17.038 40.2125 17.5504 39.7001L11.9762 34.1258L6.40188 28.5515Z" fill="#00D980"/>
</g>
<rect x="13.4551" y="10.7378" width="23.127" height="23.127" fill="url(#paint0_linear_359_251)"/>
<path d="M43.5981 16.0505C44.1105 15.5381 44.4738 14.8865 44.667 14.133C44.8603 13.3795 44.8799 12.5387 44.7246 11.6587C44.5693 10.7788 44.2422 9.87687 43.762 9.00448C43.2818 8.13208 42.6579 7.3063 41.9258 6.57427C41.1938 5.84225 40.368 5.21832 39.4956 4.73811C38.6232 4.2579 37.7213 3.93082 36.8414 3.77553C35.9614 3.62025 35.1207 3.6398 34.3671 3.83308C33.6136 4.02636 32.962 4.38958 32.4496 4.90199L38.0238 10.4763L43.5981 16.0505Z" fill="url(#paint1_linear_359_251)"/>
<path d="M17.5505 4.90188C17.0381 4.38946 16.3865 4.02625 15.633 3.83297C14.8795 3.63969 14.0387 3.62014 13.1587 3.77542C12.2788 3.93071 11.3769 4.25779 10.5045 4.738C9.63208 5.21821 8.8063 5.84214 8.07427 6.57416C7.34225 7.30619 6.71832 8.13197 6.23811 9.00437C5.7579 9.87676 5.43082 10.7787 5.27553 11.6586C5.12025 12.5386 5.1398 13.3793 5.33308 14.1329C5.52636 14.8864 5.88958 15.538 6.40199 16.0504L11.9763 10.4762L17.5505 4.90188Z" fill="url(#paint2_linear_359_251)"/>
<path d="M32.4495 39.7002C32.9619 40.2126 33.6135 40.5758 34.367 40.7691C35.1205 40.9624 35.9613 40.9819 36.8412 40.8266C37.7212 40.6713 38.6231 40.3443 39.4955 39.8641C40.3679 39.3838 41.1937 38.7599 41.9257 38.0279C42.6577 37.2959 43.2817 36.4701 43.7619 35.5977C44.2421 34.7253 44.5692 33.8234 44.7245 32.9434C44.8798 32.0635 44.8602 31.2227 44.6669 30.4692C44.4736 29.7156 44.1104 29.064 43.598 28.5516L38.0237 34.1259L32.4495 39.7002Z" fill="url(#paint3_linear_359_251)"/>
<path d="M6.40188 28.5515C5.88946 29.0639 5.52625 29.7155 5.33297 30.4691C5.13969 31.2226 5.12014 32.0633 5.27542 32.9433C5.43071 33.8233 5.75779 34.7252 6.238 35.5976C6.71821 36.47 7.34214 37.2958 8.07416 38.0278C8.80619 38.7598 9.63197 39.3837 10.5044 39.8639C11.3768 40.3441 12.2787 40.6712 13.1586 40.8265C14.0386 40.9818 14.8793 40.9622 15.6329 40.769C16.3864 40.5757 17.038 40.2125 17.5504 39.7001L11.9762 34.1258L6.40188 28.5515Z" fill="url(#paint4_linear_359_251)"/>
<path d="M63.8068 29H59.098V14.4545H63.956C65.3812 14.4545 66.6051 14.7457 67.6278 15.3281C68.6506 15.9058 69.4342 16.7367 69.9787 17.821C70.5279 18.9006 70.8026 20.1955 70.8026 21.706C70.8026 23.2211 70.5256 24.5232 69.9716 25.6122C69.4223 26.7012 68.6269 27.5393 67.5852 28.1264C66.5436 28.7088 65.2841 29 63.8068 29ZM61.2926 27.0824H63.6861C64.794 27.0824 65.715 26.8741 66.4489 26.4574C67.1828 26.036 67.732 25.4276 68.0966 24.6321C68.4612 23.8319 68.6435 22.8565 68.6435 21.706C68.6435 20.5649 68.4612 19.5966 68.0966 18.8011C67.7367 18.0057 67.1993 17.402 66.4844 16.9901C65.7694 16.5781 64.8816 16.3722 63.821 16.3722H61.2926V27.0824ZM72.5612 29V18.0909H74.6137V19.8239H74.7273C74.9262 19.2367 75.2766 18.7751 75.7785 18.4389C76.2851 18.098 76.858 17.9276 77.4972 17.9276C77.6298 17.9276 77.7861 17.9323 77.966 17.9418C78.1506 17.9512 78.2951 17.9631 78.3992 17.9773V20.0085C78.314 19.9848 78.1625 19.9588 77.9447 19.9304C77.7269 19.8973 77.5091 19.8807 77.2913 19.8807C76.7894 19.8807 76.3419 19.9872 75.9489 20.2003C75.5607 20.4086 75.2529 20.6998 75.0256 21.0739C74.7984 21.4432 74.6847 21.8646 74.6847 22.3381V29H72.5612ZM83.6415 29.2202C82.6187 29.2202 81.7262 28.9858 80.9639 28.517C80.2016 28.0483 79.6098 27.3925 79.1884 26.5497C78.767 25.7069 78.5562 24.7221 78.5562 23.5952C78.5562 22.4635 78.767 21.474 79.1884 20.6264C79.6098 19.7789 80.2016 19.1207 80.9639 18.652C81.7262 18.1832 82.6187 17.9489 83.6415 17.9489C84.6642 17.9489 85.5567 18.1832 86.319 18.652C87.0813 19.1207 87.6732 19.7789 88.0946 20.6264C88.516 21.474 88.7267 22.4635 88.7267 23.5952C88.7267 24.7221 88.516 25.7069 88.0946 26.5497C87.6732 27.3925 87.0813 28.0483 86.319 28.517C85.5567 28.9858 84.6642 29.2202 83.6415 29.2202ZM83.6486 27.4375C84.3115 27.4375 84.8607 27.2623 85.2963 26.9119C85.7319 26.5616 86.0539 26.0952 86.2622 25.5128C86.4753 24.9304 86.5818 24.2888 86.5818 23.5881C86.5818 22.892 86.4753 22.2528 86.2622 21.6705C86.0539 21.0833 85.7319 20.6122 85.2963 20.2571C84.8607 19.902 84.3115 19.7244 83.6486 19.7244C82.981 19.7244 82.427 19.902 81.9866 20.2571C81.551 20.6122 81.2267 21.0833 81.0136 21.6705C80.8053 22.2528 80.7011 22.892 80.7011 23.5881C80.7011 24.2888 80.8053 24.9304 81.0136 25.5128C81.2267 26.0952 81.551 26.5616 81.9866 26.9119C82.427 27.2623 82.981 27.4375 83.6486 27.4375ZM102.208 14.4545V29H100.191L92.7971 18.3324H92.6621V29H90.4675V14.4545H92.4988L99.8994 25.1364H100.034V14.4545H102.208ZM109.034 29.2202C108.011 29.2202 107.118 28.9858 106.356 28.517C105.594 28.0483 105.002 27.3925 104.581 26.5497C104.159 25.7069 103.948 24.7221 103.948 23.5952C103.948 22.4635 104.159 21.474 104.581 20.6264C105.002 19.7789 105.594 19.1207 106.356 18.652C107.118 18.1832 108.011 17.9489 109.034 17.9489C110.056 17.9489 110.949 18.1832 111.711 18.652C112.474 19.1207 113.065 19.7789 113.487 20.6264C113.908 21.474 114.119 22.4635 114.119 23.5952C114.119 24.7221 113.908 25.7069 113.487 26.5497C113.065 27.3925 112.474 28.0483 111.711 28.517C110.949 28.9858 110.056 29.2202 109.034 29.2202ZM109.041 27.4375C109.704 27.4375 110.253 27.2623 110.688 26.9119C111.124 26.5616 111.446 26.0952 111.654 25.5128C111.867 24.9304 111.974 24.2888 111.974 23.5881C111.974 22.892 111.867 22.2528 111.654 21.6705C111.446 21.0833 111.124 20.6122 110.688 20.2571C110.253 19.902 109.704 19.7244 109.041 19.7244C108.373 19.7244 107.819 19.902 107.379 20.2571C106.943 20.6122 106.619 21.0833 106.406 21.6705C106.197 22.2528 106.093 22.892 106.093 23.5881C106.093 24.2888 106.197 24.9304 106.406 25.5128C106.619 26.0952 106.943 26.5616 107.379 26.9119C107.819 27.2623 108.373 27.4375 109.041 27.4375ZM124.651 18.0909L120.695 29H118.422L114.459 18.0909H116.739L119.501 26.4858H119.615L122.371 18.0909H124.651ZM128.709 29.2415C128.017 29.2415 127.392 29.1136 126.834 28.858C126.275 28.5975 125.832 28.2211 125.505 27.7287C125.183 27.2363 125.022 26.6326 125.022 25.9176C125.022 25.3021 125.141 24.7955 125.378 24.3977C125.614 24 125.934 23.6851 126.336 23.4531C126.739 23.2211 127.189 23.0459 127.686 22.9276C128.183 22.8092 128.69 22.7192 129.206 22.6577C129.859 22.5819 130.389 22.5204 130.797 22.473C131.204 22.4209 131.5 22.3381 131.684 22.2244C131.869 22.1108 131.961 21.9261 131.961 21.6705V21.6207C131.961 21.0005 131.786 20.5199 131.436 20.179C131.09 19.8381 130.574 19.6676 129.887 19.6676C129.173 19.6676 128.609 19.8262 128.197 20.1435C127.79 20.456 127.508 20.804 127.352 21.1875L125.356 20.733C125.593 20.0701 125.939 19.535 126.393 19.1278C126.852 18.7159 127.38 18.4176 127.977 18.233C128.574 18.0436 129.201 17.9489 129.859 17.9489C130.295 17.9489 130.756 18.0009 131.244 18.1051C131.736 18.2045 132.196 18.3892 132.622 18.6591C133.053 18.929 133.405 19.3149 133.68 19.8168C133.955 20.3139 134.092 20.9602 134.092 21.7557V29H132.018V27.5085H131.933C131.796 27.7831 131.59 28.053 131.315 28.3182C131.04 28.5833 130.688 28.8035 130.257 28.9787C129.826 29.1539 129.31 29.2415 128.709 29.2415ZM129.17 27.5369C129.757 27.5369 130.259 27.4209 130.676 27.1889C131.097 26.9569 131.417 26.6539 131.635 26.2798C131.857 25.901 131.968 25.4962 131.968 25.0653V23.6591C131.893 23.7348 131.746 23.8059 131.528 23.8722C131.315 23.9337 131.071 23.9882 130.797 24.0355C130.522 24.0781 130.254 24.1184 129.994 24.1562C129.734 24.1894 129.516 24.2178 129.341 24.2415C128.929 24.2936 128.552 24.3812 128.211 24.5043C127.875 24.6274 127.605 24.8049 127.402 25.0369C127.203 25.2642 127.103 25.5672 127.103 25.946C127.103 26.4716 127.298 26.8693 127.686 27.1392C128.074 27.4044 128.569 27.5369 129.17 27.5369Z" fill="black"/>
<defs>
<filter id="filter0_d_359_251" x="0.171875" y="0.671875" width="49.6562" height="47.2583" filterUnits="userSpaceOnUse" color-interpolation-filters="sRGB">
<feFlood flood-opacity="0" result="BackgroundImageFix"/>
<feColorMatrix in="SourceAlpha" type="matrix" values="0 0 0 0 0 0 0 0 0 0 0 0 0 0 0 0 0 0 127 0" result="hardAlpha"/>
<feOffset dy="2"/>
<feGaussianBlur stdDeviation="2.5"/>
<feComposite in2="hardAlpha" operator="out"/>
<feColorMatrix type="matrix" values="0 0 0 0 1 0 0 0 0 1 0 0 0 0 1 0 0 0 0.25 0"/>
<feBlend mode="normal" in2="BackgroundImageFix" result="effect1_dropShadow_359_251"/>
<feBlend mode="normal" in="SourceGraphic" in2="effect1_dropShadow_359_251" result="shape"/>
</filter>
<linearGradient id="paint0_linear_359_251" x1="16.2817" y1="13.1807" x2="25.8459" y2="33.4749" gradientUnits="userSpaceOnUse">
<stop stop-color="#00D980"/>
<stop offset="1" stop-color="#007344"/>
</linearGradient>
<linearGradient id="paint1_linear_359_251" x1="36.8898" y1="3.18692" x2="31.8321" y2="13.2245" gradientUnits="userSpaceOnUse">
<stop stop-color="#00D980"/>
<stop offset="1" stop-color="#007344"/>
</linearGradient>
<linearGradient id="paint2_linear_359_251" x1="4.68692" y1="11.6102" x2="14.7245" y2="16.6679" gradientUnits="userSpaceOnUse">
<stop stop-color="#00D980"/>
<stop offset="1" stop-color="#007344"/>
</linearGradient>
<linearGradient id="paint3_linear_359_251" x1="45.3131" y1="32.9919" x2="35.2755" y2="27.9342" gradientUnits="userSpaceOnUse">
<stop stop-color="#00D980"/>
<stop offset="1" stop-color="#007344"/>
</linearGradient>
<linearGradient id="paint4_linear_359_251" x1="13.1102" y1="41.4151" x2="18.1679" y2="31.3775" gradientUnits="userSpaceOnUse">
<stop stop-color="#00D980"/>
<stop offset="1" stop-color="#007344"/>
</linearGradient>
</defs>
</svg>
