<svg width="55" height="52" viewBox="0 0 55 52" fill="none" xmlns="http://www.w3.org/2000/svg">
<rect x="13.3721" y="11.8857" width="28.2287" height="28.2287" fill="url(#paint0_linear_811_56)"/>
<path d="M50.1639 18.3711C50.7894 17.7456 51.2327 16.9503 51.4686 16.0305C51.7046 15.1107 51.7284 14.0845 51.5389 13.0105C51.3493 11.9364 50.9501 10.8355 50.364 9.77069C49.7778 8.70585 49.0163 7.69791 48.1228 6.8044C47.2293 5.9109 46.2213 5.14934 45.1565 4.5632C44.0916 3.97706 42.9908 3.57782 41.9167 3.38828C40.8426 3.19874 39.8164 3.22261 38.8966 3.45852C37.9769 3.69444 37.1816 4.13778 36.5561 4.76323L43.36 11.5671L50.1639 18.3711Z" fill="url(#paint1_linear_811_56)"/>
<path d="M18.3711 4.76282C17.7456 4.13737 16.9503 3.69403 16.0305 3.45811C15.1107 3.2222 14.0845 3.19833 13.0105 3.38787C11.9364 3.57741 10.8355 3.97665 9.77069 4.56279C8.70585 5.14893 7.69791 5.91049 6.8044 6.80399C5.9109 7.6975 5.14934 8.70544 4.5632 9.77028C3.97706 10.8351 3.57782 11.936 3.38828 13.0101C3.19874 14.0841 3.22261 15.1103 3.45852 16.0301C3.69444 16.9499 4.13778 17.7452 4.76323 18.3707L11.5671 11.5667L18.3711 4.76282Z" fill="url(#paint2_linear_811_56)"/>
<path d="M36.5557 47.2367C37.1811 47.8621 37.9765 48.3055 38.8962 48.5414C39.816 48.7773 40.8422 48.8012 41.9163 48.6116C42.9903 48.4221 44.0912 48.0229 45.1561 47.4367C46.2209 46.8506 47.2288 46.089 48.1224 45.1955C49.0159 44.302 49.7774 43.2941 50.3636 42.2292C50.9497 41.1644 51.3489 40.0635 51.5385 38.9894C51.728 37.9154 51.7041 36.8892 51.4682 35.9694C51.2323 35.0496 50.789 34.2543 50.1635 33.6289L43.3596 40.4328L36.5557 47.2367Z" fill="url(#paint3_linear_811_56)"/>
<path d="M4.76282 33.6285C4.13737 34.2539 3.69403 35.0492 3.45811 35.969C3.2222 36.8888 3.19833 37.915 3.38787 38.989C3.57741 40.0631 3.97665 41.164 4.56279 42.2288C5.14893 43.2937 5.91049 44.3016 6.80399 45.1951C7.6975 46.0886 8.70544 46.8502 9.77028 47.4363C10.8351 48.0225 11.936 48.4217 13.0101 48.6112C14.0841 48.8008 15.1103 48.7769 16.0301 48.541C16.9499 48.3051 17.7452 47.8617 18.3707 47.2363L11.5667 40.4324L4.76282 33.6285Z" fill="url(#paint4_linear_811_56)"/>
<defs>
<linearGradient id="paint0_linear_811_56" x1="16.8222" y1="14.8675" x2="28.4963" y2="39.6385" gradientUnits="userSpaceOnUse">
<stop stop-color="#00D980"/>
<stop offset="1" stop-color="#007344"/>
</linearGradient>
<linearGradient id="paint1_linear_811_56" x1="41.9759" y1="2.66983" x2="35.8024" y2="14.9216" gradientUnits="userSpaceOnUse">
<stop stop-color="#00D980"/>
<stop offset="1" stop-color="#007344"/>
</linearGradient>
<linearGradient id="paint2_linear_811_56" x1="2.66983" y1="12.9509" x2="14.9216" y2="19.1243" gradientUnits="userSpaceOnUse">
<stop stop-color="#00D980"/>
<stop offset="1" stop-color="#007344"/>
</linearGradient>
<linearGradient id="paint3_linear_811_56" x1="52.2569" y1="39.0486" x2="40.0051" y2="32.8752" gradientUnits="userSpaceOnUse">
<stop stop-color="#00D980"/>
<stop offset="1" stop-color="#007344"/>
</linearGradient>
<linearGradient id="paint4_linear_811_56" x1="12.9509" y1="49.3297" x2="19.1243" y2="37.0779" gradientUnits="userSpaceOnUse">
<stop stop-color="#00D980"/>
<stop offset="1" stop-color="#007344"/>
</linearGradient>
</defs>
</svg>
